<svg id="Layer_2" data-name="Layer 2" xmlns="http://www.w3.org/2000/svg" viewBox="0 0 281.34 254.73"><defs><style>.cls-1,.cls-2{fill:#832729;}.cls-2{font-size:91.59px;font-family:BaskOldFace, Baskerville Old Face;}</style></defs><path class="cls-1" d="M917.55,349.36s0-15,31-11c8,1,27-2,27-2v43.9s3,53.1-35,82.1c0,0,32-3,45-51,0,0,5-12,6-42v-52.5s-12,9.5-34,7.5c0,0-16-1-21-1S911.55,327.36,917.55,349.36Z" transform="translate(-853.8 -316.86)"/><path class="cls-1" d="M1073.94,349.36s0-15-31-11c-8,1-27-2-27-2v43.9s-3,53.1,35,82.1c0,0-32-3-45-51,0,0-5-12-6-42v-52.5s12,9.5,34,7.5c0,0,16-1,21-1S1079.94,327.36,1073.94,349.36Z" transform="translate(-853.8 -316.86)"/><text class="cls-2" transform="translate(0 230.63)">RAAVI</text></svg>